{"title":"The Manchurian Candidate(1962)MP-4[DaScubaDude]","uid":12357419,"size":1548029129,"categoryP":"video","categoryS":"movies","magnet":"?xt=urn:btih:f979c441a371b67845603421a0c45dc2315c67ce&amp;dn=The+Manchurian+Candidate%281962%29MP-4%5BDaScubaDude%5D&amp;tr=udp%3A%2F%2Ftracker.openbittorrent.com%3A80&amp;tr=udp%3A%2F%2Fopen.demonii.com%3A1337&amp;tr=udp%3A%2F%2Ftracker.coppersurfer.tk%3A6969&amp;tr=udp%3A%2F%2Fexodus.desync.com%3A6969","seeders":0,"leechers":0,"uploader":"dascuba","files":1,"time":1441491226,"description":"The Manchurian Candidate (1962)\nApproved  |  126 min  |  Thriller  |  24 October 1962 (USA)\n8.0 Your rating:   -/10   Ratings: 8.0/10 from 59,088 users   Metascore: 94/100 \nReviews: 295 user | 129 critic | 14 from Metacritic.com\nA former Korean War POW is brainwashed by Communists into becoming a political assassin. But another former prisoner may know how to save him.\n\nDirector: John Frankenheimer\nWriters: Richard Condon (based upon a novel by), George Axelrod (screenplay), 1 more credit Â»\nStars: Frank Sinatra, Laurence Harvey, Janet Leigh \n\nGeneral\nComplete name   : C:The Manchurian CandiddateTHE_MANCHURIAN_CANDIDATE_Title1.mp4\nFormat                                   : MPEG-4\nFormat profile                           : Base Media\nCodec ID                                 : isom\nFile size                                : 1.44 GiB\nDuration                                 : 2h 6mn\nOverall bit rate mode                    : Constant\nOverall bit rate                         : 1 633 Kbps\nMovie name                               : THE_MANCHURIAN_CANDIDATE\nGenre                                    : Thriller\nWriting application                      : Lavf54.6.100\n\nVideo\nID                                       : 1\nFormat                                   : MPEG-4 Visual\nFormat settings, BVOP                    : No\nFormat settings, QPel                    : No\nFormat settings, GMC                     : No warppoints\nFormat settings, Matrix                  : Default (H.263)\nCodec ID                                 : 20\nDuration                                 : 2h 6mn\nBit rate mode                            : Constant\nBit rate                                 : 1 499 Kbps\nWidth                                    : 720 pixels\nHeight                                   : 404 pixels\nDisplay aspect ratio                     : 16:9\nFrame rate mode                          : Constant\nFrame rate                               : 29.970 fps\nColor space                              : YUV\nChroma subsampling                       : 4:2:0\nBit depth                                : 8 bits\nScan type                                : Progressive\nCompression mode                         : Lossy\nBits/(Pixel*Frame)                       : 0.172\nStream size                              : 1.32 GiB (92%)\nWriting library                          : Lavc54.23.100\n\nAudio\nID                                       : 2\nFormat                                   : MPEG Audio\nFormat version                           : Version 1\nFormat profile                           : Layer 3\nCodec ID                                 : 6B\nDuration                                 : 2h 6mn\nBit rate mode                            : Constant\nBit rate                                 : 128 Kbps\nChannel(s)                               : 2 channels\nSampling rate                            : 44.1 KHz\nCompression mode                         : Lossy\nStream size                              : 116 MiB (8%)","torrent":{"xt":"urn:btih:f979c441a371b67845603421a0c45dc2315c67ce","amp;dn":"The+Manchurian+Candidate%281962%29MP-4%5BDaScubaDude%5D","amp;tr":["udp%3A%2F%2Ftracker.openbittorrent.com%3A80","udp%3A%2F%2Fopen.demonii.com%3A1337","udp%3A%2F%2Ftracker.coppersurfer.tk%3A6969","udp%3A%2F%2Fexodus.desync.com%3A6969"],"infoHash":"f979c441a371b67845603421a0c45dc2315c67ce","infoHashBuffer":{"type":"Buffer","data":[249,121,196,65,163,113,182,120,69,96,52,33,160,196,93,194,49,92,103,206]},"announce":[],"urlList":[]}}